<?xml version="1.0" encoding="UTF-8" standalone="yes"?>
<svg version="1.2" width="512" height="512" baseProfile="tiny-ps" xmlns="http://www.w3.org/2000/svg">
  <title>bimi-svg-tiny-12-ps</title>
  <path d="M0 0 C168.96 0 337.92 0 512 0 C512 168.96 512 337.92 512 512 C343.04 512 174.08 512 0 512 C0 343.04 0 174.08 0 0 Z " fill="#000000" transform="translate(0,0)"/>
  <path d="M0 0 C1.05908569 -0.0071553 2.11817139 -0.01431061 3.20935059 -0.02168274 C4.3820752 -0.02437164 5.5547998 -0.02706055 6.76306152 -0.02983093 C7.9910144 -0.03640213 9.21896729 -0.04297333 10.48413086 -0.04974365 C14.5790633 -0.06956689 18.67395622 -0.08117572 22.7689209 -0.09111023 C24.18519612 -0.09515968 25.60147114 -0.09927665 27.01774597 -0.10346031 C33.69465987 -0.12255442 40.37156265 -0.13675781 47.04849863 -0.14507228 C54.70050001 -0.15476101 62.35220561 -0.18083902 70.00410318 -0.22157317 C75.94501907 -0.25208431 81.88585219 -0.26657499 87.82684469 -0.26985329 C91.35953465 -0.27217107 94.89191053 -0.28068557 98.42451477 -0.30631447 C115.19300319 -0.42171518 131.12613301 0.53739241 147.60966492 3.70041847 C149.98452697 4.12429907 152.3457263 4.44021056 154.7421875 4.71191406 C158.1126709 5.14717102 158.1126709 5.14717102 159.1126709 6.14717102 C160.1851709 6.29154602 161.2576709 6.43592102 162.3626709 6.58467102 C165.7164923 7.08774423 168.01216708 7.89220519 171.1126709 9.14717102 C173.37870014 9.63712329 175.64677222 10.07960159 177.92907715 10.48701477 C180.1126709 11.14717102 180.1126709 11.14717102 181.98376465 12.62373352 C185.55869618 15.18194141 189.76005163 15.42920489 194.0189209 16.20576477 C197.50562725 17.26674486 198.65926657 18.53918227 201.1126709 21.14717102 C203.66764721 22.45644856 203.66764721 22.45644856 206.3626709 23.39717102 C207.25470215 23.73232727 208.1467334 24.06748352 209.0657959 24.41279602 C210.07899902 24.77631165 210.07899902 24.77631165 211.1126709 25.14717102 C211.1126709 26.13717102 211.1126709 27.12717102 211.1126709 28.14717102 C212.4326709 28.47717102 213.7526709 28.80717102 215.1126709 29.14717102 C215.1126709 29.80717102 215.1126709 30.46717102 215.1126709 31.14717102 C215.7726709 31.14717102 216.4326709 31.14717102 217.1126709 31.14717102 C217.1126709 32.13717102 217.1126709 33.12717102 217.1126709 34.14717102 C217.6489209 34.39467102 218.1851709 34.64217102 218.7376709 34.89717102 C221.69506909 36.45369639 224.4099114 38.18152775 227.1126709 40.14717102 C227.1126709 40.80717102 227.1126709 41.46717102 227.1126709 42.14717102 C228.1026709 42.47717102 229.0926709 42.80717102 230.1126709 43.14717102 C230.1126709 44.13717102 230.1126709 45.12717102 230.1126709 46.14717102 C230.8551709 46.18842102 231.5976709 46.22967102 232.3626709 46.27217102 C236.29683837 47.52395158 237.08494391 49.61500142 239.1126709 53.14717102 C239.67534668 54.07916321 239.67534668 54.07916321 240.24938965 55.02998352 C243.1126709 59.83225874 243.1126709 59.83225874 243.1126709 62.14717102 C243.6901709 62.33279602 244.2676709 62.51842102 244.8626709 62.70967102 C247.57151049 64.44031854 248.63550293 66.47062914 250.08532715 69.29560852 C251.07115242 71.20715907 251.07115242 71.20715907 252.5657959 72.89717102 C254.66959778 75.95724648 255.68845528 79.26573263 256.8001709 82.77217102 C257.0251123 83.45279602 257.25005371 84.13342102 257.48181152 84.83467102 C259.1126709 89.85117463 259.1126709 89.85117463 259.1126709 92.14717102 C259.7726709 92.14717102 260.4326709 92.14717102 261.1126709 92.14717102 C263.26217935 100.08848383 264.84910469 107.91358472 265.8001709 116.08467102 C265.92609619 117.1622467 266.05202148 118.23982239 266.1817627 119.35005188 C270.16613284 156.04024713 270.16613284 156.04024713 264.1126709 168.14717102 C264.03235919 169.64632287 263.97379866 171.14665724 263.9251709 172.64717102 C263.3516463 179.70522377 260.99699972 185.98393186 258.66345215 192.61201477 C256.85345007 197.77671482 255.48582791 203.0153099 254.1673584 208.32685852 C252.97665275 211.51089363 251.53794009 212.81817906 249.1126709 215.14717102 C248.06554588 217.07002463 247.08899806 219.03250856 246.1751709 221.02217102 C243.91818868 225.69612407 241.78453333 229.47530859 238.1126709 233.14717102 C237.4526709 233.14717102 236.7926709 233.14717102 236.1126709 233.14717102 C235.7826709 234.79717102 235.4526709 236.44717102 235.1126709 238.14717102 C234.4732959 238.25029602 233.8339209 238.35342102 233.1751709 238.45967102 C232.4945459 238.68654602 231.8139209 238.91342102 231.1126709 239.14717102 C230.7826709 240.13717102 230.4526709 241.12717102 230.1126709 242.14717102 C228.5111084 243.76045227 228.5111084 243.76045227 226.4876709 245.45967102 C225.76450684 246.07197571 225.04134277 246.6842804 224.29626465 247.31513977 C223.57567871 247.91971008 222.85509277 248.5242804 222.1126709 249.14717102 C220.92497354 250.18861265 219.73746014 251.23026414 218.5501709 252.27217102 C216.21951159 254.27675185 213.82756892 256.08533561 211.3001709 257.83467102 C207.99033676 259.95394911 207.99033676 259.95394911 206.1126709 263.14717102 C203.78595225 264.16246643 201.4523262 265.162053 199.1126709 266.14717102 C198.6176709 266.64346008 198.1226709 267.13974915 197.6126709 267.65107727 C195.54645692 269.71191048 193.1373292 270.37959735 190.4251709 271.32685852 C187.93142728 272.21146352 185.49687408 273.2026438 183.0501709 274.20967102 C180.12375438 275.39460041 177.3534689 276.35875191 174.3001709 277.20967102 C171.13651684 277.97545091 171.13651684 277.97545091 168.8001709 279.64717102 C165.51583962 281.48028615 162.49958174 281.95240665 158.8079834 282.52217102 C155.95402761 283.0863749 155.95402761 283.0863749 152.89196777 284.64570618 C149.22235798 286.23902727 145.96598289 286.62315485 141.9486084 286.79560852 C141.26769135 286.82770416 140.58677429 286.8597998 139.88522339 286.89286804 C137.62803853 286.99357219 135.37084795 287.07215361 133.1126709 287.14717102 C132.3118811 287.17669861 131.51109131 287.2062262 130.68603516 287.23664856 C125.57565966 287.42376931 120.46505472 287.57553764 115.35290527 287.70478821 C112.69190046 287.77335032 110.03123663 287.85076314 107.3704834 287.92842102 C105.67258066 287.97322304 103.97466435 288.01751398 102.2767334 288.06123352 C101.08789047 288.09708054 101.08789047 288.09708054 99.87503052 288.13365173 C94.3417023 288.26168672 94.3417023 288.26168672 92.1126709 287.14717102 C92.1126709 258.76717102 92.1126709 230.38717102 92.1126709 201.14717102 C106.4676709 200.15717102 106.4676709 200.15717102 121.1126709 199.14717102 C136.08900894 197.14998605 136.08900894 197.14998605 150.1126709 192.14717102 C150.98149902 191.73596008 151.85032715 191.32474915 152.7454834 190.90107727 C158.55329609 187.98134582 162.59960685 185.05427144 166.62438965 179.94404602 C168.1126709 178.14717102 168.1126709 178.14717102 170.8001709 176.27217102 C173.93067076 173.39549547 174.90316439 170.2459126 176.3157959 166.29170227 C177.1126709 164.14717102 177.1126709 164.14717102 178.1126709 163.14717102 C180.16657449 154.96154063 180.3247468 146.66204678 180.3626709 138.27217102 C180.3717749 137.28587708 180.38087891 136.29958313 180.39025879 135.28340149 C180.35557072 126.93702624 178.58371541 120.78346895 175.1126709 113.14717102 C174.6382959 112.09529602 174.1639209 111.04342102 173.6751709 109.95967102 C172.09152352 107.10910575 170.47464453 105.36599473 168.1126709 103.14717102 C167.4114209 102.26029602 166.7101709 101.37342102 165.9876709 100.45967102 C164.32176136 98.07959314 164.32176136 98.07959314 162.1126709 97.14717102 C162.1126709 96.48717102 162.1126709 95.82717102 162.1126709 95.14717102 C158.80106228 93.35338302 155.37365111 92.14164293 151.81970215 90.92842102 C150.1126709 90.14717102 150.1126709 90.14717102 149.1126709 88.14717102 C141.66650606 85.17095129 134.1084984 83.50815646 126.1126709 83.14717102 C126.1126709 82.48717102 126.1126709 81.82717102 126.1126709 81.14717102 C110.2726709 81.14717102 94.4326709 81.14717102 78.1126709 81.14717102 C78.1126709 148.13717102 78.1126709 215.12717102 78.1126709 284.14717102 C50.3926709 284.14717102 22.6726709 284.14717102 -5.8873291 284.14717102 C-5.90935507 248.11166479 -5.9278267 212.07616489 -5.93839443 176.04065386 C-5.93964521 171.79092194 -5.94093952 167.54119003 -5.94226074 163.29145813 C-5.94252305 162.44537646 -5.94278536 161.59929479 -5.94305562 160.72757428 C-5.94741257 147.00951176 -5.95530025 133.2914534 -5.9644819 119.57339335 C-5.97381775 105.50812444 -5.97938457 91.44285771 -5.9814176 77.37758583 C-5.98279297 68.69141132 -5.98714431 60.0052486 -5.99524557 51.31907772 C-6.00051219 45.37092432 -6.00213359 39.42277705 -6.00083048 33.47462148 C-6.00018697 30.03761225 -6.00120609 26.60062369 -6.00653458 23.16361809 C-6.01146418 19.44612851 -6.01033011 15.72869057 -6.00758362 12.01119995 C-6.01049646 10.91297442 -6.0134093 9.8147489 -6.01641041 8.68324381 C-6.01441936 7.69545181 -6.01242831 6.70765982 -6.01037693 5.68993473 C-6.01075665 4.83062762 -6.01113637 3.97132052 -6.0115276 3.0859738 C-5.76258408 -0.80016332 -3.33257343 0.01539189 0 0 Z " fill="#FDC817" transform="translate(51.8873291015625,104.85282897949219)"/>
  <path d="M0 0 C27.39 0 54.78 0 83 0 C84.46602301 2.93204602 84.1382306 5.52826884 84.15148926 8.80343628 C84.15572167 9.5113 84.15995408 10.21916373 84.16431475 10.94847786 C84.17738377 13.3326787 84.1833756 15.71684605 84.18945312 18.10107422 C84.19739279 19.80601711 84.20578053 21.51095796 84.21458435 23.21589661 C84.23267178 26.89524624 84.24767724 30.57459128 84.26036072 34.25396347 C84.28057163 40.07950445 84.3082305 45.90499532 84.33703613 51.73049927 C84.39719317 64.11197592 84.44891425 76.49348314 84.5 88.875 C84.55512012 102.20719144 84.6118371 115.53936752 84.67754889 128.87151158 C84.70577099 134.65361312 84.72941432 140.43570935 84.74947357 146.21784472 C84.76295098 149.83159331 84.78035909 153.44531555 84.79878426 157.05904198 C84.80647941 158.7246057 84.81257509 160.39017777 84.81687737 162.05575371 C84.0516568 179.63862189 84.0516568 179.63862189 89 196 C90.63654821 197.37013339 92.29803595 198.7120272 94 200 C94 200.99 94 201.98 94 203 C95.2065625 202.9690625 95.2065625 202.9690625 96.4375 202.9375 C99 203 99 203 100 204 C105.94 204.33 111.88 204.66 118 205 C118 231.73 118 258.46 118 286 C70.80672269 286 70.80672269 286 64 282 C64 281.34 64 280.68 64 280 C63.27554688 279.87882812 62.55109375 279.75765625 61.8046875 279.6328125 C56.71653319 278.75086575 51.83453063 277.86788683 47 276 C45.1746875 275.319375 45.1746875 275.319375 43.3125 274.625 C39.94530709 272.97316952 39.08595169 271.93929556 37 269 C35.824375 268.566875 35.824375 268.566875 34.625 268.125 C31.02175245 266.58075105 29.45598674 264.00858375 27 261 C26.2059375 260.54625 25.411875 260.0925 24.59375 259.625 C16.0949784 254.3004684 10.11745891 241.91049392 7.6875 232.375 C7.460625 231.26125 7.23375 230.1475 7 229 C6.34 229 5.68 229 5 229 C4.58427734 227.71802734 4.58427734 227.71802734 4.16015625 226.41015625 C3.79792969 225.30542969 3.43570312 224.20070313 3.0625 223.0625 C2.52302734 221.40927734 2.52302734 221.40927734 1.97265625 219.72265625 C1.26143332 217.11876525 1.26143332 217.11876525 0 216 C-0.09789273 213.21838136 -0.12993016 210.46159544 -0.12025452 207.67955017 C-0.12110894 206.79664844 -0.12196337 205.9137467 -0.12284368 205.00409037 C-0.1245012 202.02215665 -0.11897269 199.04027821 -0.11352539 196.05834961 C-0.11324355 193.93015036 -0.11340119 191.80195102 -0.1139679 189.67375183 C-0.114256 183.87646683 -0.10835723 178.07920232 -0.10139394 172.2819221 C-0.0951625 166.2307195 -0.09455677 160.17951648 -0.09336853 154.12831116 C-0.09025459 142.66064969 -0.08204037 131.19299771 -0.07201904 119.72534043 C-0.06085983 106.67357166 -0.05534794 93.62180244 -0.05032361 80.57003009 C-0.0398578 53.71334692 -0.02151155 26.85667675 0 0 Z " fill="#FEC917" transform="translate(353,103)"/>
  <path d="M0 0 C0.88094172 0.00054477 1.76188345 0.00108953 2.66952038 0.00165081 C3.68000942 -0.00254368 4.69049847 -0.00673817 5.73160839 -0.01105976 C6.84478436 -0.00544025 7.95796032 0.00017925 9.10486889 0.00596905 C10.85888767 0.00312153 10.85888767 0.00312153 12.64834118 0.00021648 C15.86393147 -0.00286121 19.07935365 0.00304113 22.29492497 0.01316953 C25.66811003 0.02195609 29.04129081 0.02019231 32.41448498 0.01980877 C38.0915765 0.02074661 43.76861473 0.02943844 49.4456892 0.04307842 C55.98018635 0.05872202 62.51462479 0.06407941 69.04913932 0.06334287 C76.0288524 0.06266271 83.00854324 0.0696394 89.98824954 0.07878947 C91.98471066 0.08090594 93.98117322 0.08147243 95.97763538 0.08202839 C99.73231498 0.08421653 103.48692353 0.09301598 107.24158764 0.1036253 C108.33249706 0.10317211 109.42340649 0.10271893 110.54737377 0.10225201 C120.87807104 0.14455634 130.97916713 0.76397753 141.11927319 2.78013897 C144.14740865 3.29338227 147.1340015 3.53762023 150.19739819 3.74888897 C154.38356062 4.0482894 157.97242699 4.61869264 161.88489819 6.24888897 C161.88489819 6.57888897 161.88489819 6.90888897 161.88489819 7.24888897 C150.80438476 7.24888897 139.82624736 4.99950484 128.88489819 3.24888897 C85.98489819 3.24888897 43.08489819 3.24888897 -1.11510181 3.24888897 C-1.44510181 96.63888897 -1.77510181 190.02888897 -2.11510181 286.24888897 C25.60489819 286.24888897 53.32489819 286.24888897 81.88489819 286.24888897 C81.88489819 219.25888897 81.88489819 152.26888897 81.88489819 83.24888897 C97.72489819 83.24888897 113.56489819 83.24888897 129.88489819 83.24888897 C129.88489819 83.57888897 129.88489819 83.90888897 129.88489819 84.24888897 C114.70489819 84.24888897 99.52489819 84.24888897 83.88489819 84.24888897 C83.890135 90.39312481 83.89537182 96.53736065 83.90076733 102.86778545 C83.91729753 123.11212747 83.92841794 143.35646974 83.93671036 163.60081673 C83.94187402 175.8813788 83.94891804 188.1619345 83.96033764 200.44249249 C83.97028234 211.14203189 83.9767511 221.84156668 83.97898668 232.54111058 C83.98029415 238.21020839 83.98338229 243.87929298 83.99062824 249.54838657 C83.99738509 254.87769209 83.99951583 260.20697887 83.99800587 265.53628826 C83.99828235 267.49835149 84.00028945 269.46041532 84.00410366 271.42247486 C84.00903568 274.08899653 84.0078983 276.75544628 84.0051527 279.42196941 C84.00806554 280.20891908 84.01097839 280.99586874 84.01397949 281.80666536 C83.9990194 287.13476776 83.9990194 287.13476776 82.88489819 288.24888897 C80.24827838 288.35464146 77.63771698 288.39566925 75.0003767 288.39415264 C73.76139629 288.39919056 73.76139629 288.39919056 72.49738598 288.40433025 C69.75284372 288.41386946 67.00836227 288.41578484 64.26380444 288.41685772 C62.36430364 288.42006822 60.46480311 288.42343213 58.56530285 288.42694378 C54.57799741 288.43294248 50.59071368 288.43478292 46.60340405 288.4341917 C41.48395229 288.43409003 36.36463908 288.44774386 31.24522018 288.46496391 C27.32053515 288.47606038 23.39588385 288.47811164 19.47118473 288.47758198 C17.58326712 288.47876559 15.69534873 288.48320858 13.80744648 288.49091434 C11.17113588 288.500667 8.53512927 288.49785504 5.8988142 288.49180889 C5.11276302 288.4974284 4.32671185 288.5030479 3.51684093 288.5088377 C-1.88678633 288.47720445 -1.88678633 288.47720445 -4.11510181 286.24888897 C-4.36580014 284.181777 -4.36580014 284.181777 -4.3667841 281.57304668 C-4.37199959 280.58101364 -4.37721509 279.5889806 -4.38258862 278.56688595 C-4.37812718 277.46904655 -4.37366574 276.37120716 -4.3690691 275.24009991 C-4.37218908 274.08007332 -4.37530906 272.92004673 -4.37852359 271.72486782 C-4.38514265 268.49514989 -4.38273061 265.26558107 -4.37655115 262.03586674 C-4.37204187 258.55661359 -4.37900282 255.07738121 -4.38451099 251.59813213 C-4.393423 244.77840162 -4.39147497 237.95871503 -4.38568571 231.13898277 C-4.38117631 225.59842536 -4.38055318 220.0578803 -4.38273335 214.51732159 C-4.38303981 213.72996742 -4.38334628 212.94261325 -4.38366203 212.13139987 C-4.38430145 210.5321064 -4.38494988 208.93281293 -4.38560721 207.33351946 C-4.3913158 192.32275636 -4.38474434 177.31201766 -4.37400648 162.30125856 C-4.36507049 149.41009189 -4.36662238 136.51896124 -4.375844 123.62779522 C-4.38653731 108.67221896 -4.39076643 93.7166641 -4.38461947 78.76108456 C-4.38398235 77.16754183 -4.38335361 75.57399909 -4.38273335 73.98045635 C-4.38242479 73.19632044 -4.38211624 72.41218452 -4.38179834 71.60428691 C-4.38006858 66.06780628 -4.38299255 60.53133918 -4.38769245 54.99486065 C-4.39329087 48.25143799 -4.39180681 41.50806192 -4.38113096 34.76464462 C-4.37586018 31.32140379 -4.37384127 27.87824074 -4.38042927 24.43500042 C-4.38585237 20.7091474 -4.37909003 16.98351668 -4.3690691 13.25767803 C-4.37353054 12.15983864 -4.37799199 11.06199924 -4.38258862 9.93089199 C-4.37737313 8.93885895 -4.37215764 7.9468259 -4.3667841 6.92473125 C-4.36645939 6.06385025 -4.36613469 5.20296925 -4.36580014 4.31600094 C-4.00332506 1.32724311 -2.98003724 0.35066794 0 0 Z " fill="#644F08" transform="translate(48.11510181427002,102.75111103057861)"/>
  <path d="M0 0 C27.39 0 54.78 0 83 0 C84.46602301 2.93204602 84.1382306 5.52826884 84.15148926 8.80343628 C84.15572167 9.5113 84.15995408 10.21916373 84.16431475 10.94847786 C84.17738377 13.3326787 84.1833756 15.71684605 84.18945312 18.10107422 C84.19739279 19.80601711 84.20578053 21.51095796 84.21458435 23.21589661 C84.23267178 26.89524624 84.24767724 30.57459128 84.26036072 34.25396347 C84.28057163 40.07950445 84.3082305 45.90499532 84.33703613 51.73049927 C84.39719317 64.11197592 84.44891425 76.49348314 84.5 88.875 C84.55512012 102.20719144 84.6118371 115.53936752 84.67754889 128.87151158 C84.70577099 134.65361312 84.72941432 140.43570935 84.74947357 146.21784472 C84.76295098 149.83159331 84.78035909 153.44531555 84.79878426 157.05904198 C84.80647941 158.7246057 84.81257509 160.39017777 84.81687737 162.05575371 C84.54394989 177.6775654 84.54394989 177.6775654 87 193 C83.86093334 190.43167273 83.05189369 187.8661405 82 184 C81.82259348 181.4300248 81.737722 178.97333758 81.75949097 176.40701294 C81.75778212 175.66276341 81.75607327 174.91851389 81.75431263 174.15171134 C81.75103 171.66891266 81.76200105 169.18638689 81.77294922 166.70361328 C81.7735136 164.91949978 81.77319625 163.13538581 81.77206421 161.35127258 C81.77149074 156.51496446 81.78324416 151.67875569 81.79721212 146.84247065 C81.80972041 141.78560039 81.81089006 136.72872782 81.81326294 131.67184448 C81.81947741 122.09908639 81.83588781 112.52637402 81.85596192 102.95363605 C81.88250343 90.01575668 81.89329382 77.07786479 81.90496635 64.13996506 C81.92376841 43.75994246 81.96361433 23.38001635 82 3 C55.27 3 28.54 3 1 3 C1.33 73.62 1.66 144.24 2 217 C1.34 216.67 0.68 216.34 0 216 C0 144.72 0 73.44 0 0 Z " fill="#94750D" transform="translate(353,103)"/>
  <path d="M0 0 C0.53625 0.13277344 1.0725 0.26554687 1.625 0.40234375 C7.99313564 1.83726905 14.22614027 2.37139127 20.72851562 2.65795898 C25.9030901 2.9030901 25.9030901 2.9030901 27 4 C27.10567349 6.51463844 27.14678222 9.00195215 27.14526367 11.51733398 C27.14862228 12.30430664 27.1519809 13.0912793 27.15544128 13.90209961 C27.16497979 16.51678016 27.16689584 19.13139686 27.16796875 21.74609375 C27.17117931 23.55591356 27.17454322 25.36573311 27.17805481 27.17555237 C27.18405334 30.97454429 27.18589397 34.77351344 27.18530273 38.57250977 C27.18520107 43.44982773 27.1988546 48.32700025 27.21607494 53.20428371 C27.22717226 56.94367651 27.22922264 60.6830339 27.22869301 64.42244148 C27.22987651 66.22104456 27.23431885 68.01964845 27.24202538 69.8182354 C27.25177972 72.33001885 27.24896543 74.84148333 27.24291992 77.35327148 C27.24853943 78.10191971 27.25415894 78.85056793 27.25994873 79.62190247 C27.2283156 84.7716844 27.2283156 84.7716844 25 87 C22.34488585 87.19994466 19.79645228 87.2798039 17.140625 87.265625 C16.35862732 87.26753845 15.57662964 87.2694519 14.77093506 87.27142334 C13.1132373 87.2727858 11.45552889 87.26908512 9.79785156 87.26074219 C7.27384049 87.25010052 4.75055051 87.26060534 2.2265625 87.2734375 C0.61458177 87.27211479 -0.99739851 87.2695501 -2.609375 87.265625 C-3.35958923 87.26967346 -4.10980347 87.27372192 -4.88275146 87.27789307 C-9.31636477 87.23873726 -12.8668172 86.57365178 -17 85 C-18.64010085 84.79974039 -20.28757653 84.6507455 -21.9375 84.5625 C-26.48682314 84.17661991 -29.82497926 82.90439543 -34 81 C-37.64291284 79.90613623 -41.31459027 78.93967951 -45 78 C-45 77.34 -45 76.68 -45 76 C-46.32 75.67 -47.64 75.34 -49 75 C-46.45635984 73.72817992 -45.75536947 74.17932725 -43.0859375 74.99609375 C-41.94511719 75.33930664 -41.94511719 75.33930664 -40.78125 75.68945312 C-39.9871875 75.93630859 -39.193125 76.18316406 -38.375 76.4375 C-37.57320313 76.68048828 -36.77140625 76.92347656 -35.9453125 77.17382812 C-33.96155332 77.77604073 -31.98051018 78.38718689 -30 79 C-30 79.66 -30 80.32 -30 81 C-11.83660142 84.28552944 5.25020969 84.43182454 24 85 C24 58.27 24 31.54 24 4 C18.06 4 12.12 4 6 4 C4.02 3.34 2.04 2.68 0 2 C0 1.34 0 0.68 0 0 Z " fill="#6A5309" transform="translate(447,304)"/>
  <path d="M0 0 C-1.76677348 0.7800937 -3.53872977 1.54844903 -5.3125 2.3125 C-6.29863281 2.74175781 -7.28476563 3.17101562 -8.30078125 3.61328125 C-25.74995797 10.1544193 -34.43146307 8 -56 8 C-56 34.73 -56 61.46 -56 89 C-34.71822533 90.01341784 -15.07648667 89.80087694 6 88 C-3.9530183 94.63534553 -22.02418653 92.26090632 -33.75976562 92.55761719 C-36.42077044 92.6261793 -39.08143427 92.70359212 -41.7421875 92.78125 C-43.44009023 92.82605202 -45.13800655 92.87034296 -46.8359375 92.9140625 C-47.62849945 92.93796051 -48.4210614 92.96185852 -49.23764038 92.98648071 C-54.7709686 93.1145157 -54.7709686 93.1145157 -57 92 C-57 63.62 -57 35.24 -57 6 C-42.645 5.01 -42.645 5.01 -28 4 C-0.63157895 -0.21052632 -0.63157895 -0.21052632 0 0 Z " fill="#81660B" transform="translate(201,300)"/>
  <path d="M0 0 C0.66 0.33 1.32 0.66 2 1 C4.67833821 9.43634621 4.32338315 18.56621066 4.25 27.3125 C4.24335327 28.3675473 4.24335327 28.3675473 4.23657227 29.44390869 C3.84900923 82.15099077 3.84900923 82.15099077 -8 94 C-7.67637632 88.60627205 -6.43087473 84.24561275 -4.5 79.1875 C-2.51740137 73.86459194 -1.46617832 69.24014098 -1.17578125 63.58984375 C-0.94370906 60.17064685 -0.24843564 56.92075586 0.5 53.58203125 C1.8078834 46.82803962 2.19271632 40.23641131 2.1875 33.375 C2.18814453 32.48143799 2.18878906 31.58787598 2.18945312 30.66723633 C2.11094877 20.39297879 1.11126977 10.2068355 0 0 Z " fill="#785F0A" transform="translate(316,212)"/>
  <path d="M0 0 C5.65724629 0.60183471 10.65231022 2.09307186 16 4 C16.99 4.33 17.98 4.66 19 5 C19 5.66 19 6.32 19 7 C36.95677665 10.24815414 54.80607342 10.70179293 73 11 C73 11.33 73 11.66 73 12 C68.14771965 12.05021865 63.29559739 12.08609757 58.44311523 12.10986328 C56.79953367 12.11979235 55.15596914 12.13334011 53.51245117 12.15087891 C26.30177168 12.43354408 26.30177168 12.43354408 15 7 C11.35778036 5.90384635 7.68539105 4.93967475 4 4 C4 3.34 4 2.68 4 2 C2.68 1.67 1.36 1.34 0 1 C0 0.67 0 0.34 0 0 Z " fill="#8A6D0C" transform="translate(398,378)"/>
  <path d="M0 0 C0.33 0 0.66 0 1 0 C3.14043048 6.09852811 3.30987952 11.69478035 3.25 18.125 C3.24468262 19.14094238 3.23936523 20.15688477 3.23388672 21.20361328 C3.04618144 36.1036107 3.04618144 36.1036107 1 43 C0.01 43.495 0.01 43.495 -1 44 C-0.89171875 42.88044922 -0.89171875 42.88044922 -0.78125 41.73828125 C0.35893988 27.85013507 0.09114888 13.92334184 0 0 Z " fill="#71590A" transform="translate(230,225)"/>
  <path d="M0 0 C12.02739736 -0.35432595 24.75920561 0.19624171 36 5 C36.495 5.99 36.495 5.99 37 7 C31.20041048 7.23671794 26.58140247 6.76744412 21 5 C14.03518423 3.24762016 7.15203672 1.70118007 0 1 C0 0.67 0 0.34 0 0 Z " fill="#4D3D06" transform="translate(165,187)"/>
  <path d="M0 0 C0 3.69418201 -1.28179295 5.77836178 -3 9 C-4.32 9 -5.64 9 -7 9 C-7.2475 9.598125 -7.495 10.19625 -7.75 10.8125 C-10.06120869 14.8571152 -13.62909797 16.65510707 -18 18 C-18.99 17.67 -19.98 17.34 -21 17 C-19.75146327 16.20602761 -18.50109957 15.41492783 -17.25 14.625 C-16.55390625 14.18414062 -15.8578125 13.74328125 -15.140625 13.2890625 C-13 12 -13 12 -10.9609375 11.0859375 C-8.53423963 9.74206896 -7.14796214 8.1244304 -5.375 6 C-3.6266832 3.92339664 -1.92037235 1.92037235 0 0 Z " fill="#9B7A0D" transform="translate(222,281)"/>
  <path d="M0 0 C5.64753004 1.63150868 5.64753004 1.63150868 7.375 3.4375 C9.45459044 5.4371062 11.49753557 6.17439651 14.1875 7.1875 C15.08855469 7.53167969 15.98960937 7.87585938 16.91796875 8.23046875 C17.60503906 8.48441406 18.29210937 8.73835937 19 9 C19 9.99 19 10.98 19 12 C20.32 12.33 21.64 12.66 23 13 C23 13.66 23 14.32 23 15 C23.66 15.33 24.32 15.66 25 16 C24.01 16 23.02 16 22 16 C22 15.34 22 14.68 22 14 C20.68 14 19.36 14 18 14 C16.25 12.625 16.25 12.625 15 11 C15 10.34 15 9.68 15 9 C14.29875 8.9175 13.5975 8.835 12.875 8.75 C9.34718852 7.82970135 6.99900446 6.04187538 4 4 C1.77397385 3.23060319 1.77397385 3.23060319 0 3 C0 2.01 0 1.02 0 0 Z " fill="#9E7D0E" transform="translate(244,121)"/>
  <path d="M0 0 C2.76223278 2.76223278 2.57856291 5.20706617 3 9 C3.66 9 4.32 9 5 9 C8.3667134 14.0500701 10.03578548 20.02187 11 26 C4.5019784 19.811408 2.14733756 12.58935026 0 4 C0 2.68 0 1.36 0 0 Z " fill="#665109" transform="translate(355,323)"/>
  <path d="M0 0 C4.71323214 1.24762027 6.60036419 3.75045524 9.515625 7.39453125 C11.41373428 9.44748628 13.40399522 10.06255383 16 11 C17.3125 13.125 17.3125 13.125 18 15 C13.25798596 14.71260521 10.89257092 12.45744901 7.55078125 9.375 C6.03010772 7.90723545 6.03010772 7.90723545 4 7 C2.53589034 4.71598892 1.21303722 2.42607444 0 0 Z " fill="#655008" transform="translate(375,361)"/>
  <path d="M0 0 C5.65724629 0.60183471 10.65231022 2.09307186 16 4 C16.99 4.33 17.98 4.66 19 5 C19 5.66 19 6.32 19 7 C19.99 7.33 20.98 7.66 22 8 C15.80759538 7.31195504 9.98044406 5.71951285 4 4 C4 3.34 4 2.68 4 2 C2.68 1.67 1.36 1.34 0 1 C0 0.67 0 0.34 0 0 Z " fill="#C99F12" transform="translate(398,378)"/>
  <path d="M0 0 C0 3 0 3 -1.2421875 4.60546875 C-1.78101563 5.12753906 -2.31984375 5.64960938 -2.875 6.1875 C-3.40867187 6.71730469 -3.94234375 7.24710937 -4.4921875 7.79296875 C-6 9 -6 9 -8 9 C-8.20625 9.598125 -8.4125 10.19625 -8.625 10.8125 C-10.53549209 13.85191923 -12.71404225 14.69930839 -16 16 C-16.66 15.67 -17.32 15.34 -18 15 C-17.11957031 14.33613281 -16.23914063 13.67226563 -15.33203125 12.98828125 C-14.1587036 12.09655224 -12.98553497 11.20461398 -11.8125 10.3125 C-10.9452832 9.65991211 -10.9452832 9.65991211 -10.06054688 8.99414062 C-6.42004107 6.21748365 -3.16585793 3.30894756 0 0 Z " fill="#4E3E06" transform="translate(277,350)"/>
  <path d="M0 0 C0 0.66 0 1.32 0 2 C-5.67615705 6.12811422 -12.16611496 7.16319775 -19 8 C-17.17015906 4.34031812 -13.17246594 3.3950115 -9.44921875 2.140625 C-2.47199292 0 -2.47199292 0 0 0 Z " fill="#745B0A" transform="translate(237,378)"/>
  <path d="M0 0 C0.66 0.33 1.32 0.66 2 1 C1.04956626 2.33897583 0.08940853 3.67105427 -0.875 5 C-1.40867187 5.7425 -1.94234375 6.485 -2.4921875 7.25 C-3.23855469 8.11625 -3.23855469 8.11625 -4 9 C-4.66 9 -5.32 9 -6 9 C-6.33 10.65 -6.66 12.3 -7 14 C-7.639375 14.103125 -8.27875 14.20625 -8.9375 14.3125 C-9.9584375 14.6528125 -9.9584375 14.6528125 -11 15 C-11.33 15.99 -11.66 16.98 -12 18 C-12.99 18.33 -13.98 18.66 -15 19 C-15 17 -15 17 -13.625 15.375 C-12 14 -12 14 -10 14 C-10 13.34 -10 12.68 -10 12 C-9.34 11.67 -8.68 11.34 -8 11 C-7.67 10.01 -7.34 9.02 -7 8 C-6.34 8 -5.68 8 -5 8 C-4.9175 7.4225 -4.835 6.845 -4.75 6.25 C-3.79468987 3.3840696 -2.21530827 2.0009236 0 0 Z " fill="#93740D" transform="translate(294,329)"/>
  <path d="M0 0 C4.01860951 1.37780897 6.76798482 3.26521793 10 6 C10.763125 6.515625 11.52625 7.03125 12.3125 7.5625 C13.1478125 8.2740625 13.1478125 8.2740625 14 9 C14 9.99 14 10.98 14 12 C14.66 12 15.32 12 16 12 C16 12.66 16 13.32 16 14 C15.01 14 14.02 14 13 14 C12.67 13.01 12.34 12.02 12 11 C9.73842159 8.28610591 7.02549618 6.77102215 4 5 C1.6875 3.4375 1.6875 3.4375 0 2 C0 1.34 0 0.68 0 0 Z " fill="#5A4707" transform="translate(269,137)"/>
  <path d="M0 0 C2.79409766 0.25428084 5.58400819 0.52756756 8.375 0.8125 C9.56609375 0.91788086 9.56609375 0.91788086 10.78125 1.02539062 C12.86779466 1.2464229 14.93739317 1.6150624 17 2 C17.99 3.485 17.99 3.485 19 5 C17.35369672 4.85957123 15.70795821 4.71250671 14.0625 4.5625 C12.68771484 4.44068359 12.68771484 4.44068359 11.28515625 4.31640625 C9 4 9 4 8 3 C6.845 2.855625 5.69 2.71125 4.5 2.5625 C3.345 2.376875 2.19 2.19125 1 2 C0.67 1.34 0.34 0.68 0 0 Z " fill="#735B0A" transform="translate(210,110)"/>
  <path d="M0 0 C-1.48279811 3.909195 -3.2594463 5.20765135 -7 7 C-10.30620126 8.10375478 -13.6384986 9.07966661 -17 10 C-14.86319025 7.66245964 -13.66965671 6.85929823 -10.625 5.5625 C-7.11240093 4.04844868 -3.68724571 0 0 0 Z " fill="#4C3C06" transform="translate(256,368)"/>
  <path d="M0 0 C0.99 0 1.98 0 3 0 C2.507439 4.43304896 1.13599102 5.95624401 -2 9 C-3.06011943 10.96879323 -4.07470849 12.96435867 -5 15 C-6 12 -6 12 -5.22265625 9.95703125 C-4.83980469 9.24933594 -4.45695312 8.54164063 -4.0625 7.8125 C-3.68222656 7.09707031 -3.30195313 6.38164062 -2.91015625 5.64453125 C-2.60980469 5.10183594 -2.30945313 4.55914062 -2 4 C-1.34 4 -0.68 4 0 4 C0 2.68 0 1.36 0 0 Z " fill="#AC880F" transform="translate(303,311)"/>
  <path d="M0 0 C3.35882075 1.41231461 5.13329047 3.03368978 7.3125 5.9375 C8.11107422 6.97197266 8.11107422 6.97197266 8.92578125 8.02734375 C9.28027344 8.67832031 9.63476562 9.32929688 10 10 C9.67 10.99 9.34 11.98 9 13 C6.68327983 10.83908265 5.02157038 8.63969372 3.375 5.9375 C2.94960938 5.24527344 2.52421875 4.55304688 2.0859375 3.83984375 C1.34554314 2.58543459 0.65141786 1.30283572 0 0 Z " fill="#755C0A" transform="translate(288,155)"/>
  <path d="M0 0 C2.97 0.33 5.94 0.66 9 1 C9.33 1.99 9.66 2.98 10 4 C12.01508358 4.73323796 12.01508358 4.73323796 14 5 C12 6 12 6 9.25 5.25 C6.04545618 4.01748315 3.0397966 2.59227441 0 1 C0 0.67 0 0.34 0 0 Z " fill="#644F08" transform="translate(229,115)"/>
  <path d="M0 0 C0.66 0 1.32 0 2 0 C2 1.32 2 2.64 2 4 C2.66 4 3.32 4 4 4 C4.99 6.97 5.98 9.94 7 13 C2.64999832 8.64999832 0.70651442 6.21732685 0 0 Z " fill="#4A3A06" transform="translate(359,336)"/>
  <path d="M0 0 C2.62117509 1.31058754 3.24199164 2.78182491 4.6875 5.3125 C5.14511719 6.09238281 5.60273438 6.87226563 6.07421875 7.67578125 C7.1236295 10.31037786 6.98464547 11.3921814 6 14 C5.67 12.35 5.34 10.7 5 9 C4.01 8.67 3.02 8.34 2 8 C1.26953125 6.15234375 1.26953125 6.15234375 0.8125 3.9375 C0.65394531 3.20402344 0.49539062 2.47054687 0.33203125 1.71484375 C0.22246094 1.14894531 0.11289063 0.58304688 0 0 Z " fill="#624D08" transform="translate(223,211)"/>
  <path d="M0 0 C4.49603169 2.29797175 6.28744088 3.87995148 7.875 8.75 C8.27097558 10.16094748 8.65317072 11.57617455 9 13 C6.47411298 10.63707344 5.11179163 9.33537489 4 6 C3.319375 5.319375 2.63875 4.63875 1.9375 3.9375 C1.298125 3.298125 0.65875 2.65875 0 2 C0 1.34 0 0.68 0 0 Z " fill="#B38D0F" transform="translate(220,206)"/>
  <path d="M0 0 C-2.22825644 2.22825644 -3.65761628 2.69239369 -6.625 3.625 C-7.44226563 3.88539063 -8.25953125 4.14578125 -9.1015625 4.4140625 C-9.72804687 4.60742188 -10.35453125 4.80078125 -11 5 C-11 4.34 -11 3.68 -11 3 C-9.68 2.67 -8.36 2.34 -7 2 C-7 1.34 -7 0.68 -7 0 C-3.86650268 -1.04449911 -3.01031744 -0.93423645 0 0 Z " fill="#BA9310" transform="translate(250,372)"/>
  <path d="M0 0 C6.4 0.49230769 6.4 0.49230769 9.4375 3.0625 C10.2109375 4.0215625 10.2109375 4.0215625 11 5 C8.69 4.67 6.38 4.34 4 4 C4 3.34 4 2.68 4 2 C2.68 1.67 1.36 1.34 0 1 C0 0.67 0 0.34 0 0 Z " fill="#9B7A0D" transform="translate(398,378)"/>
  <path d="M0 0 C0.66 0.33 1.32 0.66 2 1 C1.01 2.485 1.01 2.485 0 4 C-0.99 4 -1.98 4 -3 4 C-3.33 4.99 -3.66 5.98 -4 7 C-4.99 7.33 -5.98 7.66 -7 8 C-7 6 -7 6 -5.625 4.375 C-4 3 -4 3 -2 3 C-2 2.34 -2 1.68 -2 1 C-1.34 0.67 -0.68 0.34 0 0 Z " fill="#876A0C" transform="translate(286,340)"/>
  <path d="M0 0 C3.33727786 1.17255709 5.77437487 2.18868404 8 5 C8 5.66 8 6.32 8 7 C5.05043472 5.63055898 2.47531189 4.12169591 0 2 C0 1.34 0 0.68 0 0 Z " fill="#96760D" transform="translate(269,137)"/>
  <path d="M0 0 C2.97 0.33 5.94 0.66 9 1 C9 1.66 9 2.32 9 3 C6.1875 3.1875 6.1875 3.1875 3 3 C2.01 2.01 1.02 1.02 0 0 Z " fill="#292003" transform="translate(426,388)"/>
  <path d="M0 0 C0 0.66 0 1.32 0 2 C-3.71973879 4.84450614 -6.37390802 5.3227506 -11 5 C-11 4.67 -11 4.34 -11 4 C-9.6078125 3.566875 -9.6078125 3.566875 -8.1875 3.125 C-5.26107601 2.09214447 -3.05256861 0 0 0 Z " fill="#413305" transform="translate(237,378)"/>
  <path d="M0 0 C0.66 0.33 1.32 0.66 2 1 C0.90554162 1.86657116 -0.20097781 2.71792724 -1.3125 3.5625 C-1.92738281 4.03816406 -2.54226562 4.51382812 -3.17578125 5.00390625 C-3.77777344 5.33261719 -4.37976563 5.66132813 -5 6 C-5.99 5.67 -6.98 5.34 -8 5 C-6.71475739 4.13619741 -5.42157581 3.28419631 -4.125 2.4375 C-3.04605469 1.72400391 -3.04605469 1.72400391 -1.9453125 0.99609375 C-1.30335938 0.66738281 -0.66140625 0.33867187 0 0 Z " fill="#574507" transform="translate(209,293)"/>
  <path d="M0 0 C4.05606165 0.46800711 7.46588679 0.87953208 11 3 C3.49230769 3.36923077 3.49230769 3.36923077 1 1.5 C0.67 1.005 0.34 0.51 0 0 Z " fill="#604C08" transform="translate(199,107)"/>
  <path d="M0 0 C3 1 3 1 4.75 3.9375 C5.1625 4.948125 5.575 5.95875 6 7 C5.67 7.66 5.34 8.32 5 9 C0.57142857 3.85714286 0.57142857 3.85714286 0 0 Z " fill="#665009" transform="translate(298,168)"/>
</svg>