<?xml version="1.0" encoding="UTF-8" standalone="yes"?>
<svg
    version="1.2"
    baseProfile="tiny-ps"
    xmlns="http://www.w3.org/2000/svg"
    width="350"
    height="350"
    viewBox="0 0 350 350"
    preserveAspectRatio="xMidYMid meet">

<title>BIMI Logo</title>

<!-- Background -->
<rect x="0" y="0" width="350" height="350" fill="#000000"/>

<!-- Logo -->
<g
    transform="translate(0,350) scale(0.1,-0.1)"
    fill="#FFC800"
    stroke="none">

<path d="
M1370 2576
c278 -48 471 -168 605 -376
88 -138 119 -255 119 -455
0 -161 -13 -238 -57 -350
-103 -264 -336 -463 -612 -521
-79 -17 -328 -31 -368 -20
l-27 6
0 249
0 248
113 5
c307 14 443 148 424 420
-11 168 -101 267 -276 304
-38 8 -124 14 -203 14
l-138 0
0 -620
0 -620
-260 0
-260 0
0 863
c0 475 3 867 8 871
4 5 194 6 422 3
320 -4 437 -9 510 -21
z"/>

<path d="
M2820 2025
c3 -314 9 -580 14 -592
13 -35 70 -64 136 -70
l60 -6
0 -250
0 -250
-137 6
c-76 4 -157 11 -181 17
-188 46 -350 214 -391 408
-7 36 -11 255 -11 683
l0 629
253 -2
252 -3
5 -570
z"/>

</g>

</svg>