<?xml version="1.0" encoding="UTF-8" standalone="yes"?>
<svg version="1.2" width="350.000000pt" height="350.000000pt" viewBox="0 0 350.000000 350.000000" preserveAspectRatio="xMidYMid meet" baseProfile="tiny-ps" xmlns="http://www.w3.org/2000/svg">
  <title>bimi-svg-tiny-12-ps</title>
  <g transform="translate(0.000000,350.000000) scale(0.100000,-0.100000)" fill="#000000" stroke="none">
    <path d="M0 1750 l0 -1750 1750 0 1750 0 0 1750 0 1750 -1750 0 -1750 0 0&#xA;-1750z m1370 826 c278 -48 471 -168 605 -376 88 -138 119 -255 119 -455 0&#xA;-161 -13 -238 -57 -350 -103 -264 -336 -463 -612 -521 -79 -17 -328 -31 -368&#xA;-20 l-27 6 0 249 0 248 113 5 c307 14 443 148 424 420 -11 168 -101 267 -276&#xA;304 -38 8 -124 14 -203 14 l-138 0 0 -620 0 -620 -260 0 -260 0 0 863 c0 475&#xA;3 867 8 871 4 5 194 6 422 3 320 -4 437 -9 510 -21z m1450 -551 c3 -314 9&#xA;-580 14 -592 13 -35 70 -64 136 -70 l60 -6 0 -250 0 -250 -137 6 c-76 4 -157&#xA;11 -181 17 -188 46 -350 214 -391 408 -7 36 -11 255 -11 683 l0 629 253 -2&#xA;252 -3 5 -570z"/>
  </g>
</svg>